<svg width="647" height="115" viewBox="0 0 647 115" fill="none" xmlns="http://www.w3.org/2000/svg">
<path d="M63.9098 8.70565L36.1028 57.0956L23.9224 78.2933L8.94264 104.958C8.93359 104.968 8.93172 104.978 8.92629 104.988C7.07729 108.206 8.2197 112.211 11.4854 113.953H11.4947L11.811 114.124C15.2976 115.985 19.5384 114.799 21.5701 111.398C30.5328 95.8906 33.2943 90.4408 42.2743 74.8146L54.4635 53.6027L73.4922 20.4904C78.1292 12.4229 78.2431 12.4055 82.8891 20.4904L99.9579 50.1935C104.92 58.8291 104.93 58.839 94.9882 58.839H56.9051L48.7277 73.0691H111.096C119.686 73.0691 124.7 64.7944 120.275 57.0936L92.468 8.70365C89.2532 3.10914 83.7647 -0.000999803 78.188 2.41093e-07C72.6113 2.41093e-07 67.1248 3.11077 63.9098 8.70565ZM7.69668 58.841C3.4305 58.8409 0.0574591 62.2208 0 66.4923C0.294716 70.4079 3.57114 73.3154 7.48814 73.0782C7.55781 73.0691 7.6271 73.0691 7.69668 73.0691H21.4738L29.6477 58.839L7.69668 58.841ZM60.87 94.3983C56.9221 94.3983 53.7972 97.538 53.7972 101.505V101.524C53.7972 105.49 56.9228 108.632 60.87 108.632H126.927C130.874 108.632 134 105.49 134 101.524V101.505C134 97.5383 130.875 94.3983 126.927 94.3983H60.87Z" fill="url(#paint0_linear_349_1424)"/>
<path d="M182.77 86.6088C190.754 86.6088 197.526 83.0717 200.052 77.4118L201.064 85.396H209.149V54.3684C209.149 41.0269 200.862 34.5587 188.632 34.5587C175.897 34.5587 167.407 41.3303 167.407 51.6393H175.696C175.696 45.6764 180.243 42.1393 188.228 42.1393C194.898 42.1393 199.851 45.0699 199.851 53.3577V54.7729L184.286 55.9848C172.664 56.8959 165.892 62.5542 165.892 71.6501C165.892 80.6453 172.158 86.6088 182.77 86.6088ZM185.497 79.2307C179.332 79.2307 175.491 76.6007 175.491 71.3475C175.491 66.4961 178.928 63.2624 187.316 62.4536L199.95 61.4425V64.0723C199.95 73.3706 194.492 79.2307 185.497 79.2307ZM231.989 85.396V7.22307L222.488 11.0097V85.396H231.989ZM245.936 107.53L255.436 103.744V77.3108C258.671 83.3749 265.24 86.7103 273.124 86.7103C287.779 86.7103 296.066 75.3904 296.066 60.3312C296.066 45.1711 287.273 34.5587 273.124 34.5587C265.24 34.5587 258.569 38.0965 255.234 44.8679L254.526 35.974H245.936L245.936 107.53ZM255.537 60.7357C255.537 50.4265 261.399 43.2505 271.102 43.2505C280.805 43.2505 286.566 50.5279 286.566 60.7357C286.566 70.8424 280.805 78.1195 271.102 78.1195C261.399 78.1195 255.537 70.8424 255.537 60.7357ZM316.077 85.2955V58.4108C316.077 49.921 321.03 43.2505 330.227 43.2505C337.302 43.2505 342.052 47.2932 342.052 57.299V85.396H351.553V55.177C351.553 42.5435 345.489 34.5587 332.855 34.5587C325.174 34.5587 319.211 38.1969 316.077 43.5536V7.22307L306.577 11.0097V85.2955H316.077ZM379.145 86.6074C387.129 86.6074 393.901 83.0698 396.427 77.41L397.439 85.3946H405.524V54.3661C405.524 41.0252 397.237 34.5568 385.007 34.5568C372.273 34.5568 363.782 41.329 363.782 51.6379H372.07C372.07 45.675 376.618 42.1369 384.602 42.1369C391.273 42.1369 396.225 45.0677 396.225 53.3558V54.7711L380.661 55.9829C369.038 56.894 362.267 62.5523 362.267 71.6483C362.267 80.6434 368.532 86.6074 379.145 86.6074ZM381.872 79.2293C375.707 79.2293 371.866 76.5993 371.866 71.3461C371.866 66.4948 375.302 63.2607 383.691 62.4522L396.325 61.4406V64.071C396.325 73.3692 390.867 79.2293 381.872 79.2293ZM427.252 85.3946L427.959 76.3992C431.194 83.171 437.763 86.6074 445.545 86.6074C459.897 86.6074 468.791 75.894 468.791 60.9359C468.791 45.6747 460.302 34.5573 446.152 34.5573C438.066 34.5573 431.396 37.9934 428.161 44.4614V7.22168L418.661 11.0078V85.3946H427.252ZM428.263 60.5314C428.263 50.4247 434.125 43.1477 443.828 43.1477C453.53 43.1477 459.291 50.4247 459.291 60.5314C459.291 70.7395 453.53 78.0166 443.828 78.0166C434.125 78.0166 428.263 70.8406 428.263 60.5314ZM493.755 86.6074C501.74 86.6074 508.511 83.0698 511.038 77.41L512.05 85.3946H520.135V54.3661C520.135 41.0252 511.848 34.5568 499.618 34.5568C486.884 34.5568 478.394 41.329 478.394 51.6379H486.682C486.682 45.675 491.23 42.1369 499.214 42.1369C505.885 42.1369 510.837 45.0677 510.837 53.3558V54.7711L495.273 55.9829C483.65 56.894 476.878 62.5523 476.878 71.6483C476.878 80.6434 483.143 86.6074 493.755 86.6074ZM496.486 79.2293C490.321 79.2293 486.48 76.5993 486.48 71.3461C486.48 66.4948 489.916 63.2607 498.305 62.4522L510.938 61.4406V64.071C510.938 73.3692 505.481 79.2293 496.486 79.2293ZM529.232 71.0426C529.232 80.442 536.61 86.6074 548.233 86.6074C559.956 86.6074 568.042 80.6448 568.042 71.2451C568.042 63.8669 563.898 60.026 555.509 58.0048L546.818 55.8819C541.967 54.6701 539.541 52.4453 539.541 49.11C539.541 44.5623 542.876 41.9344 548.839 41.9344C554.6 41.9344 557.935 45.067 558.137 50.0201H567.234C567.021 40.6205 559.957 34.5564 549.142 34.5564C538.227 34.5564 530.546 40.3176 530.546 49.4135C530.546 56.6903 534.689 61.0364 543.482 63.1589L552.174 65.1785C557.329 66.4905 558.946 68.5137 558.946 71.849C558.946 76.3969 555.105 79.126 548.435 79.126C542.169 79.126 538.328 76.0918 538.328 71.0403L529.232 71.0426ZM599.879 86.6074C612.108 86.6074 620.396 80.6447 622.822 70.0324H613.927C612.309 75.6922 607.459 78.7242 600.081 78.7242C590.682 78.7242 585.224 72.9632 584.517 62.5528L622.72 62.462V58.9242C622.72 44.2696 613.523 34.5666 599.475 34.5666C585.123 34.5666 575.319 45.2805 575.319 60.7436C575.319 76.1062 585.325 86.6074 599.879 86.6074ZM599.475 42.5415C607.864 42.5415 613.221 47.9992 613.221 56.1859H584.719C585.931 47.4939 591.188 42.5415 599.475 42.5415Z" fill="#F3F4F6"/>
<path d="M636.495 80.528H635.664V72.2656H638.745C640.418 72.2656 641.434 73.1888 641.434 74.6543C641.434 75.8429 640.811 76.6738 639.749 76.9623L641.515 80.528H640.591L638.907 77.1007H636.495V80.528ZM636.495 73.0157V76.3507H638.768C639.911 76.3507 640.58 75.7275 640.58 74.6774C640.58 73.6042 639.876 73.0157 638.745 73.0157H636.495Z" fill="#F3F4F6"/>
<circle cx="638.5" cy="76.2783" r="8" stroke="#F3F4F6"/>
<defs>
<linearGradient id="paint0_linear_349_1424" x1="67" y1="0" x2="67" y2="115.002" gradientUnits="userSpaceOnUse">
<stop stop-color="#14B8A6"/>
<stop offset="0.62829" stop-color="#2F74DC"/>
</linearGradient>
</defs>
</svg>
