<svg width="134" height="115" viewBox="0 0 134 115" fill="none" xmlns="http://www.w3.org/2000/svg">
<path d="M63.9098 8.70565L36.1028 57.0956L23.9224 78.2932L8.94264 104.958C8.93359 104.968 8.93172 104.978 8.92629 104.988C7.07729 108.206 8.2197 112.211 11.4854 113.953H11.4947L11.811 114.124C15.2976 115.985 19.5384 114.799 21.5701 111.398C30.5328 95.8906 33.2943 90.4408 42.2743 74.8146L54.4635 53.6027L73.4922 20.4904C78.1292 12.4229 78.2431 12.4055 82.8891 20.4904L99.9579 50.1935C104.92 58.8291 104.93 58.839 94.9882 58.839H56.9051L48.7277 73.0691H111.096C119.686 73.0691 124.7 64.7944 120.275 57.0936L92.468 8.70365C89.2532 3.10914 83.7647 -0.000999803 78.188 2.41093e-07C72.6113 2.41093e-07 67.1248 3.11077 63.9098 8.70565ZM7.69668 58.841C3.4305 58.8409 0.0574591 62.2208 0 66.4923C0.294716 70.4079 3.57114 73.3154 7.48814 73.0782C7.55781 73.0691 7.6271 73.0691 7.69668 73.0691H21.4738L29.6477 58.839L7.69668 58.841ZM60.87 94.3983C56.9221 94.3983 53.7972 97.538 53.7972 101.505V101.524C53.7972 105.49 56.9228 108.632 60.87 108.632H126.927C130.874 108.632 134 105.49 134 101.524V101.505C134 97.5383 130.875 94.3983 126.927 94.3983H60.87Z" fill="url(#paint0_linear_349_1625)"/>
<defs>
<linearGradient id="paint0_linear_349_1625" x1="67" y1="0" x2="67" y2="115.002" gradientUnits="userSpaceOnUse">
<stop stop-color="#14B8A6"/>
<stop offset="0.62829" stop-color="#2F74DC"/>
</linearGradient>
</defs>
</svg>
