 <svg
            width="62px"
            height="24px"
            viewBox="0 0 155 32"
            fill="none"
            xmlns="http://www.w3.org/2000/svg">
            <path
                d="M20.9091 10.3281C20.7003 9.60227 20.407 8.96094 20.0291 8.40412C19.6513 7.83736 19.1889 7.36009 18.642 6.9723C18.1051 6.57457 17.4886 6.27131 16.7926 6.0625C16.1065 5.85369 15.3459 5.74929 14.5107 5.74929C12.9496 5.74929 11.5774 6.13707 10.3942 6.91264C9.22088 7.68821 8.30611 8.81676 7.64986 10.2983C6.99361 11.7699 6.66548 13.5696 6.66548 15.6974C6.66548 17.8253 6.98864 19.6349 7.63494 21.1264C8.28125 22.6179 9.19602 23.7564 10.3793 24.5419C11.5625 25.3175 12.9595 25.7053 14.5703 25.7053C16.032 25.7053 17.2798 25.4467 18.3139 24.9297C19.358 24.4027 20.1534 23.6619 20.7003 22.7074C21.2571 21.7528 21.5355 20.6243 21.5355 19.3217L22.848 19.5156H14.973V14.6534H27.755V18.5014C27.755 21.1861 27.1882 23.4929 26.0547 25.4219C24.9212 27.3409 23.3601 28.8224 21.3714 29.8665C19.3828 30.9006 17.1058 31.4176 14.5405 31.4176C11.6768 31.4176 9.16122 30.7862 6.99361 29.5234C4.82599 28.2507 3.13565 26.446 1.92259 24.1094C0.71946 21.7628 0.117898 18.9787 0.117898 15.7571C0.117898 13.2812 0.475852 11.0739 1.19176 9.13494C1.91761 7.18608 2.93182 5.53551 4.23438 4.18324C5.53693 2.83096 7.05327 1.80185 8.78338 1.09588C10.5135 0.389914 12.3878 0.0369307 14.4062 0.0369307C16.1364 0.0369307 17.7472 0.290482 19.2386 0.797585C20.7301 1.29474 22.0526 2.00071 23.206 2.91548C24.3693 3.83025 25.3189 4.91903 26.0547 6.18182C26.7905 7.43466 27.2628 8.81676 27.4716 10.3281H20.9091ZM42.612 31.4474C40.2555 31.4474 38.2271 30.9702 36.5268 30.0156C34.8365 29.0511 33.5339 27.6889 32.6191 25.929C31.7044 24.1591 31.247 22.0661 31.247 19.6499C31.247 17.2933 31.7044 15.2251 32.6191 13.4453C33.5339 11.6655 34.8215 10.2784 36.4821 9.28409C38.1525 8.28977 40.1113 7.79261 42.3585 7.79261C43.8698 7.79261 45.2768 8.03622 46.5794 8.52344C47.8919 9.00071 49.0353 9.72159 50.0098 10.6861C50.9941 11.6506 51.7598 12.8636 52.3066 14.3253C52.8535 15.777 53.1269 17.4773 53.1269 19.4261V21.1712H33.7825V17.2337H47.1461C47.1461 16.3189 46.9473 15.5085 46.5495 14.8026C46.1518 14.0966 45.6 13.5447 44.894 13.147C44.198 12.7393 43.3876 12.5355 42.4629 12.5355C41.4984 12.5355 40.6433 12.7592 39.8975 13.2067C39.1617 13.6442 38.585 14.2358 38.1674 14.9815C37.7498 15.7173 37.536 16.5376 37.5261 17.4425V21.1861C37.5261 22.3196 37.7349 23.299 38.1525 24.1243C38.5801 24.9496 39.1816 25.5859 39.9572 26.0334C40.7328 26.4808 41.6525 26.7045 42.7164 26.7045C43.4224 26.7045 44.0687 26.6051 44.6553 26.4062C45.242 26.2074 45.7441 25.9091 46.1617 25.5114C46.5794 25.1136 46.8975 24.6264 47.1163 24.0497L52.9927 24.4375C52.6944 25.8494 52.0829 27.0824 51.1582 28.1364C50.2434 29.1804 49.0602 29.9957 47.6085 30.5824C46.1667 31.1591 44.5012 31.4474 42.612 31.4474ZM63.3119 17.7557V31H56.9582V8.09091H63.0136V12.1328H63.2821C63.7892 10.8004 64.6394 9.74645 65.8325 8.97088C67.0257 8.18537 68.4724 7.79261 70.1727 7.79261C71.7636 7.79261 73.1507 8.14062 74.334 8.83665C75.5172 9.53267 76.4369 10.527 77.0932 11.8196C77.7494 13.1023 78.0776 14.6335 78.0776 16.4134V31H71.7239V17.5469C71.7338 16.1449 71.3759 15.0511 70.65 14.2656C69.9242 13.4702 68.9249 13.0724 67.6521 13.0724C66.797 13.0724 66.0413 13.2564 65.3851 13.6243C64.7388 13.9922 64.2317 14.5291 63.8638 15.2351C63.5058 15.9311 63.3219 16.7713 63.3119 17.7557ZM93.2105 31.4474C90.854 31.4474 88.8256 30.9702 87.1253 30.0156C85.435 29.0511 84.1324 27.6889 83.2176 25.929C82.3029 24.1591 81.8455 22.0661 81.8455 19.6499C81.8455 17.2933 82.3029 15.2251 83.2176 13.4453C84.1324 11.6655 85.4201 10.2784 87.0806 9.28409C88.751 8.28977 90.7098 7.79261 92.957 7.79261C94.4684 7.79261 95.8753 8.03622 97.1779 8.52344C98.4904 9.00071 99.6338 9.72159 100.608 10.6861C101.593 11.6506 102.358 12.8636 102.905 14.3253C103.452 15.777 103.725 17.4773 103.725 19.4261V21.1712H84.381V17.2337H97.7446C97.7446 16.3189 97.5458 15.5085 97.148 14.8026C96.7503 14.0966 96.1985 13.5447 95.4925 13.147C94.7965 12.7393 93.9861 12.5355 93.0614 12.5355C92.0969 12.5355 91.2418 12.7592 90.4961 13.2067C89.7603 13.6442 89.1836 14.2358 88.7659 14.9815C88.3483 15.7173 88.1345 16.5376 88.1246 17.4425V21.1861C88.1246 22.3196 88.3334 23.299 88.751 24.1243C89.1786 24.9496 89.7801 25.5859 90.5557 26.0334C91.3313 26.4808 92.251 26.7045 93.3149 26.7045C94.0209 26.7045 94.6672 26.6051 95.2539 26.4062C95.8405 26.2074 96.3426 25.9091 96.7603 25.5114C97.1779 25.1136 97.4961 24.6264 97.7148 24.0497L103.591 24.4375C103.293 25.8494 102.681 27.0824 101.757 28.1364C100.842 29.1804 99.6587 29.9957 98.207 30.5824C96.7652 31.1591 95.0997 31.4474 93.2105 31.4474ZM107.557 31V8.09091H113.717V12.0881H113.955C114.373 10.6662 115.074 9.59233 116.058 8.86648C117.043 8.13068 118.176 7.76278 119.459 7.76278C119.777 7.76278 120.12 7.78267 120.488 7.82244C120.856 7.86222 121.179 7.9169 121.457 7.9865V13.6243C121.159 13.5348 120.746 13.4553 120.219 13.3857C119.692 13.3161 119.21 13.2812 118.773 13.2812C117.838 13.2812 117.003 13.4851 116.267 13.8928C115.541 14.2905 114.964 14.8473 114.537 15.5632C114.119 16.2791 113.91 17.1044 113.91 18.0391V31H107.557ZM130.304 31.4325C128.842 31.4325 127.54 31.179 126.396 30.6719C125.253 30.1548 124.348 29.3942 123.682 28.3899C123.025 27.3757 122.697 26.1129 122.697 24.6016C122.697 23.3288 122.931 22.2599 123.398 21.3949C123.866 20.5298 124.502 19.8338 125.307 19.3068C126.113 18.7798 127.027 18.3821 128.052 18.1136C129.086 17.8452 130.169 17.6562 131.303 17.5469C132.635 17.4077 133.709 17.2784 134.525 17.1591C135.34 17.0298 135.932 16.8409 136.299 16.5923C136.667 16.3437 136.851 15.9759 136.851 15.4886V15.3991C136.851 14.4545 136.553 13.7237 135.956 13.2067C135.37 12.6896 134.535 12.4311 133.451 12.4311C132.307 12.4311 131.397 12.6847 130.721 13.1918C130.045 13.6889 129.598 14.3153 129.379 15.071L123.503 14.5938C123.801 13.2017 124.388 11.9986 125.263 10.9844C126.138 9.96023 127.266 9.17471 128.648 8.62784C130.04 8.07102 131.651 7.79261 133.481 7.79261C134.753 7.79261 135.971 7.94176 137.135 8.24006C138.308 8.53835 139.347 9.00071 140.252 9.62713C141.167 10.2536 141.888 11.0589 142.415 12.0433C142.942 13.0178 143.205 14.1861 143.205 15.5483V31H137.179V27.8232H137C136.633 28.5391 136.14 29.1705 135.524 29.7173C134.907 30.2543 134.167 30.6768 133.302 30.9851C132.437 31.2834 131.437 31.4325 130.304 31.4325ZM132.123 27.0476C133.058 27.0476 133.883 26.8636 134.599 26.4957C135.315 26.1179 135.877 25.6108 136.285 24.9744C136.692 24.3381 136.896 23.6172 136.896 22.8118V20.3807C136.697 20.5099 136.424 20.6293 136.076 20.7386C135.738 20.8381 135.355 20.9325 134.927 21.022C134.5 21.1016 134.072 21.1761 133.645 21.2457C133.217 21.3054 132.829 21.3601 132.481 21.4098C131.736 21.5192 131.084 21.6932 130.527 21.9318C129.971 22.1705 129.538 22.4936 129.23 22.9013C128.922 23.299 128.768 23.7962 128.768 24.3928C128.768 25.2578 129.081 25.919 129.707 26.3764C130.344 26.8239 131.149 27.0476 132.123 27.0476ZM154.173 0.454545V31H147.819V0.454545H154.173Z"
                fill="black"
            />
        </svg>
